<?xml version="1.0" encoding="UTF-8" standalone="no"?>
<!-- Created with Inkscape (http://www.inkscape.org/) -->
<svg
   xmlns:svg="http://www.w3.org/2000/svg"
   xmlns="http://www.w3.org/2000/svg"
   version="1.0"
   width="408.03021"
   height="60.84375"
   id="svg2">
  <defs
     id="defs4" />
  <g
     transform="translate(-146.75102,-171.8125)"
     id="layer1">
    <path
       d="M 413.28125,171.8125 C 409.8682,171.8125 407.125,174.58696 407.125,178 L 407.125,192 C 405.44746,191.53842 403.66667,191.28125 401.84375,191.28125 C 390.85305,191.28125 381.93749,200.24126 381.9375,211.28125 C 381.93751,222.32125 390.85303,231.28126 401.84375,231.28125 C 412.27261,231.28125 420.83953,223.22553 421.6875,212.96875 C 421.68833,212.95855 421.68667,212.9477 421.6875,212.9375 C 421.86696,212.35807 421.9375,211.76494 421.9375,211.125 L 421.9375,178 C 421.93749,174.58696 419.19429,171.8125 415.78125,171.8125 L 413.28125,171.8125 z M 195.9375,172.125 C 194.99649,172.15685 194.11612,172.36364 193.25,172.65625 C 191.65512,173.19507 190.2521,175.17615 189.6875,176.1875 C 187.99564,179.21803 188.14442,181.84411 189.0625,184.625 C 189.76127,186.74158 192.3905,188.08243 194.0625,189.875 C 194.98985,190.86923 194.88179,192.34839 194.0625,193.15625 C 191.25993,195.91969 188.875,197.64948 188.875,200.71875 L 188.875,228.53125 L 203.25,228.53125 L 203.25,199.78125 C 203.25,197.34658 201.62619,195.18977 197.90625,193.125 C 196.78753,192.50405 197.04365,190.57447 197.90625,189.9375 C 199.0529,189.09079 200.09268,187.54947 201.4375,186.40625 C 204.0698,184.16856 204.89514,180.27141 203.8125,177.5625 C 202.6918,174.75836 200.83518,173.46569 198.875,172.65625 C 197.85784,172.23622 196.87851,172.09315 195.9375,172.125 z M 331.90625,172.4375 C 331.39479,172.44971 330.87729,172.50374 330.34375,172.5625 C 326.51864,172.98377 324.99592,176.2448 324.78125,178.5 L 324.53125,226.8125 C 324.52376,228.22242 325.60682,229.0625 326.78125,229.0625 L 337.15625,229.0625 C 338.42026,229.0625 338.78125,228.2639 338.78125,227.40625 L 338.78125,178.90625 C 338.56744,176.17404 336.26917,173.13833 333.46875,172.5625 C 332.94544,172.4549 332.41771,172.42529 331.90625,172.4375 z M 275.6875,191 C 273.52065,191.12864 271.02734,192.12852 269.375,194.9375 L 263.125,205.5625 L 263.125,197.8125 C 263.125,195.01906 259.64039,191.55482 256.59375,191.53125 C 254.66034,191.51629 252.74123,191.81129 251.21875,192.96875 C 249.54888,194.23826 248.54122,196.39352 248.53125,198.5625 L 248.40625,226.65625 C 248.39926,228.1776 249.26805,228.6875 250.4375,228.6875 L 262.5,228.6875 L 262.5,218.6875 C 262.5,217.81597 262.95265,216.95622 263.6875,218.03125 L 269.8125,227 C 270.37726,227.82622 270.84126,228.65625 271.46875,228.65625 L 283.03125,228.65625 C 285.9132,228.65625 285.85592,226.26497 284.71875,224.25 L 278.03125,214.25 C 276.73251,212.31055 277.04457,211.29084 278.03125,209.59375 L 282.5,201.90625 C 284.04202,199.25396 284.25323,196.75407 282.5,194.40625 C 281.59687,193.19683 280.95874,192.20092 278.65625,191.375 C 278.08613,191.1705 277.37448,191.03793 276.59375,191 C 276.30098,190.98578 275.99705,190.98162 275.6875,191 z M 166.875,191.28125 C 162.80465,191.3118 158.86853,192.5151 156.0625,194.1875 C 149.82693,197.90391 146.3893,203.02628 146.78125,209 L 147.3125,228.65625 L 161.0625,228.65625 L 161.59375,210.4375 C 161.83259,202.31652 170.90625,202.74902 170.90625,209.375 L 170.90625,226.28125 C 170.90625,227.21387 170.83431,228.625 172.3125,228.625 L 185.90625,228.625 L 185.90625,207.21875 C 185.90625,201.26769 179.30492,195.52979 176.15625,193.65625 C 173.29136,191.95157 170.04083,191.25749 166.875,191.28125 z M 225.6875,191.28125 C 214.69679,191.28125 205.78124,200.24126 205.78125,211.28125 C 205.78125,222.32125 214.69678,231.28126 225.6875,231.28125 C 236.05351,231.28125 244.56496,223.32478 245.5,213.15625 L 230.6875,213.15625 C 230.21182,217.38547 228.14563,220.5625 225.6875,220.5625 C 222.8782,220.56249 220.59375,216.40696 220.59375,211.28125 C 220.59374,206.15553 222.87821,202 225.6875,202 C 227.98847,202 229.93257,204.79969 230.5625,208.625 L 245.40625,208.625 C 244.10495,198.84732 235.77597,191.28126 225.6875,191.28125 z M 302.84375,191.28125 C 292.19896,191.28125 283.56249,200.24126 283.5625,211.28125 C 283.56248,222.32125 292.19893,231.28126 302.84375,231.28125 C 312.88355,231.28125 320.56314,224.57478 321.46875,214.40625 L 307.125,214.40625 C 306.66431,218.63547 305.22452,219.5 302.84375,219.5 C 300.3398,219.49999 298.87448,216.93061 298.65625,212.53125 L 321.78125,212.53125 C 321.91975,211.27129 321.9404,209.93786 321.84375,208.625 L 321.9375,208.625 C 321.85872,208.01389 321.7557,207.40502 321.625,206.8125 C 321.61352,206.76049 321.60561,206.7081 321.59375,206.65625 C 319.57849,197.84665 311.95044,191.28126 302.84375,191.28125 z M 360.78125,191.28125 C 349.79053,191.28125 340.87499,200.24126 340.875,211.28125 C 340.87499,222.32125 349.79053,231.28126 360.78125,231.28125 C 371.77195,231.28125 380.68751,222.32126 380.6875,211.28125 C 380.68749,200.24125 371.77196,191.28126 360.78125,191.28125 z M 445,191.28125 C 434.35522,191.28125 425.71874,200.24126 425.71875,211.28125 C 425.71874,222.32125 434.35518,231.28126 445,231.28125 C 455.03981,231.28125 462.71939,224.57478 463.625,214.40625 L 449.28125,214.40625 C 448.82057,218.63547 447.38077,219.5 445,219.5 C 442.49606,219.49999 441.03073,216.93061 440.8125,212.53125 L 463.9375,212.53125 C 464.07601,211.27129 464.09665,209.93786 464,208.625 L 464.09375,208.625 C 464.01498,208.01389 463.91195,207.40502 463.78125,206.8125 C 463.76978,206.76049 463.76186,206.7081 463.75,206.65625 C 461.73475,197.84665 454.10669,191.28126 445,191.28125 z M 484.375,191.28125 C 473.3843,191.28125 464.46874,200.24126 464.46875,211.28125 C 464.46876,222.32125 473.38428,231.28126 484.375,231.28125 C 495.36572,231.28125 504.28126,222.32126 504.28125,211.28125 C 504.28126,200.24125 495.36571,191.28126 484.375,191.28125 z M 526.375,191.28125 C 522.30464,191.3118 518.39978,192.5151 515.59375,194.1875 C 509.35821,197.90391 505.8893,203.02628 506.28125,209 L 506.84375,228.65625 L 520.59375,228.65625 L 521.125,210.4375 C 521.36382,202.31652 530.40625,202.74902 530.40625,209.375 L 530.40625,226.28125 C 530.40623,227.21387 530.36556,228.625 531.84375,228.625 L 545.40625,228.625 L 545.40625,207.21875 C 545.40623,201.26769 538.80492,195.52979 535.65625,193.65625 C 532.79137,191.95157 529.54083,191.25749 526.375,191.28125 z M 302.84375,202 C 304.66386,202 306.2086,203.8878 307.0625,206.65625 L 299.125,206.65625 C 299.77288,203.89809 301.03713,202 302.84375,202 z M 360.78125,202 C 363.59051,202 365.875,206.15554 365.875,211.28125 C 365.87497,216.40696 363.59054,220.5625 360.78125,220.5625 C 357.97194,220.56249 355.6875,216.40696 355.6875,211.28125 C 355.68748,206.15553 357.97196,202 360.78125,202 z M 401.84375,202 C 404.65303,202 406.9375,206.15554 406.9375,211.28125 C 406.93749,216.40696 404.65304,220.5625 401.84375,220.5625 C 399.03446,220.56249 396.75,216.40696 396.75,211.28125 C 396.75,206.15553 399.03446,202 401.84375,202 z M 445,202 C 446.82012,202 448.36485,203.8878 449.21875,206.65625 L 441.28125,206.65625 C 441.92914,203.89809 443.19338,202 445,202 z M 484.375,202 C 487.18428,202 489.46875,206.15554 489.46875,211.28125 C 489.46874,216.40696 487.18429,220.5625 484.375,220.5625 C 481.56571,220.56249 479.28125,216.40696 479.28125,211.28125 C 479.28125,206.15553 481.56571,202 484.375,202 z M 551,225.1875 C 548.94147,225.18749 547.31243,226.91025 547.3125,228.96875 C 547.31248,231.02725 548.94148,232.65625 551,232.65625 C 553.0585,232.65624 554.78132,231.02726 554.78125,228.96875 C 554.78123,226.91024 553.05851,225.1875 551,225.1875 z M 551,225.84375 C 552.71538,225.84376 554.125,227.25332 554.125,228.96875 C 554.12498,230.68416 552.71542,232 551,232 C 549.28451,232 547.9375,230.68419 547.9375,228.96875 C 547.93748,227.25331 549.28453,225.84375 551,225.84375 z M 549.625,226.625 L 549.625,231 L 550.1875,231 L 550.1875,229.1875 L 550.78125,229.1875 L 552,231 L 552.8125,231 L 551.375,228.96875 C 551.95711,228.72732 552.21875,228.29501 552.21875,227.71875 C 552.21876,227.37027 552.09588,227.12051 551.875,226.9375 C 551.65403,226.7545 551.35221,226.625 550.9375,226.625 L 549.625,226.625 z M 550.1875,227.15625 L 550.625,227.15625 C 551.27133,227.15625 551.5625,227.36664 551.5625,227.8125 C 551.56248,228.41797 551.17717,228.65625 550.40625,228.65625 L 550.1875,228.65625 L 550.1875,227.15625 z"
       id="path2453"
       style="opacity:1;fill:#fd7c03;fill-opacity:1;stroke:none;stroke-width:6.9000001;stroke-linecap:butt;stroke-linejoin:miter;stroke-miterlimit:4;stroke-dasharray:none;stroke-dashoffset:0;stroke-opacity:1" />
  </g>
</svg>
